<svg width="15" height="15" viewBox="0 0 15 15" fill="none" xmlns="http://www.w3.org/2000/svg">
<g clip-path="url(#clip0_121_1688)">
<path d="M7.5 4.375C7.15625 4.375 6.875 4.65625 6.875 5V6.875H5C4.65625 6.875 4.375 7.15625 4.375 7.5C4.375 7.84375 4.65625 8.125 5 8.125H6.875V10C6.875 10.3438 7.15625 10.625 7.5 10.625C7.84375 10.625 8.125 10.3438 8.125 10V8.125H10C10.3438 8.125 10.625 7.84375 10.625 7.5C10.625 7.15625 10.3438 6.875 10 6.875H8.125V5C8.125 4.65625 7.84375 4.375 7.5 4.375ZM7.5 1.25C4.05 1.25 1.25 4.05 1.25 7.5C1.25 10.95 4.05 13.75 7.5 13.75C10.95 13.75 13.75 10.95 13.75 7.5C13.75 4.05 10.95 1.25 7.5 1.25ZM7.5 12.5C4.74375 12.5 2.5 10.2562 2.5 7.5C2.5 4.74375 4.74375 2.5 7.5 2.5C10.2562 2.5 12.5 4.74375 12.5 7.5C12.5 10.2562 10.2562 12.5 7.5 12.5Z" fill="#9873FF"/>
</g>
<defs>
<clipPath id="clip0_121_1688">
<rect width="15" height="15" fill="white"/>
</clipPath>
</defs>
</svg>
