<svg width="27" height="14" viewBox="0 0 27 14" fill="none" xmlns="http://www.w3.org/2000/svg">
<path d="M15.3711 11L14.6582 9.01758H11.9287L11.2305 11H10L12.6709 3.83203H13.9404L16.6113 11H15.3711ZM14.3506 8.01172L13.6816 6.06836C13.6328 5.93815 13.5645 5.73307 13.4766 5.45312C13.3919 5.17318 13.3333 4.9681 13.3008 4.83789C13.2129 5.23828 13.0843 5.67611 12.915 6.15137L12.2705 8.01172H14.3506ZM16.9629 8.80762V7.83105H19.4727V8.80762H16.9629ZM23.0322 8.13867L21.2646 11H19.9316L21.9434 7.87012C21.0319 7.55436 20.5762 6.8903 20.5762 5.87793C20.5762 5.22363 20.8024 4.72396 21.2549 4.37891C21.7074 4.03385 22.373 3.86133 23.252 3.86133H25.3955V11H24.2236V8.13867H23.0322ZM24.2236 4.83789H23.2959C22.8044 4.83789 22.4268 4.92578 22.1631 5.10156C21.9027 5.27409 21.7725 5.55729 21.7725 5.95117C21.7725 6.33529 21.8994 6.63477 22.1533 6.84961C22.4072 7.06445 22.8011 7.17188 23.335 7.17188H24.2236V4.83789Z" fill="#9873FF"/>
<path d="M0 7L0.705 7.705L3.5 4.915V11H4.5V4.915L7.29 7.71L8 7L4 3L0 7Z" fill="#9873FF"/>
</svg>
