<svg width="16" height="16" viewBox="0 0 16 16" fill="none" xmlns="http://www.w3.org/2000/svg">
<circle cx="8" cy="8" r="8" fill="#9873FF"/>
<path d="M11.2 5H4.8C4.36 5 4 5.3375 4 5.75V10.25C4 10.6625 4.36 11 4.8 11H11.2C11.64 11 12 10.6625 12 10.25V5.75C12 5.3375 11.64 5 11.2 5ZM11.04 6.59375L8.424 8.1275C8.164 8.28125 7.836 8.28125 7.576 8.1275L4.96 6.59375C4.86 6.53375 4.8 6.4325 4.8 6.32375C4.8 6.0725 5.092 5.9225 5.32 6.05375L8 7.625L10.68 6.05375C10.908 5.9225 11.2 6.0725 11.2 6.32375C11.2 6.4325 11.14 6.53375 11.04 6.59375Z" fill="white"/>
</svg>
